<svg width="25" height="25" viewBox="0 0 25 25" fill="none" xmlns="http://www.w3.org/2000/svg">
<g id="cloud (1) 2" clip-path="url(#clip0_1_9135)">
<path id="Vector" d="M20.1216 19.6839H5.62665C4.91389 19.6835 4.20902 19.5346 3.55702 19.2466C2.90502 18.9586 2.32019 18.5379 1.83983 18.0114C1.35947 17.4848 0.994136 16.8639 0.767121 16.1882C0.540106 15.5126 0.456396 14.797 0.521331 14.0872C0.586265 13.3774 0.798419 12.689 1.14426 12.0657C1.4901 11.4425 1.96204 10.8982 2.52997 10.4675C3.0979 10.0368 3.74935 9.72919 4.44278 9.56431C5.13622 9.39943 5.8564 9.38087 6.5574 9.50983C6.75776 9.0171 7.05377 8.56896 7.42833 8.19129C7.8029 7.81362 8.24858 7.51392 8.73965 7.30951C9.23071 7.10509 9.75741 7.00001 10.2893 7.00033C10.8212 7.00066 11.3478 7.10638 11.8386 7.3114C12.4652 6.273 13.4407 5.49135 14.5907 5.10623C15.7407 4.72112 16.9902 4.75765 18.1157 5.20931C19.2412 5.66096 20.1694 6.49828 20.7342 7.57151C21.299 8.64474 21.4636 9.88389 21.1985 11.0673C22.2323 11.3298 23.1346 11.9608 23.7359 12.8417C24.3371 13.7226 24.5959 14.7928 24.4637 15.8511C24.3314 16.9094 23.8171 17.883 23.0176 18.5888C22.218 19.2946 21.1881 19.6841 20.1216 19.684V19.6839ZM5.62665 10.363C5.07499 10.3611 4.5284 10.4682 4.0182 10.678C3.50801 10.8878 3.04425 11.1963 2.65351 11.5857C2.26278 11.9752 1.95275 12.4379 1.74122 12.9474C1.52968 13.4569 1.42079 14.0031 1.42079 14.5548C1.42079 15.1064 1.52968 15.6527 1.74122 16.1622C1.95275 16.6717 2.26278 17.1344 2.65351 17.5238C3.04425 17.9132 3.50801 18.2217 4.0182 18.4316C4.5284 18.6414 5.07499 18.7484 5.62665 18.7466H20.1216C20.9959 18.7465 21.8374 18.4133 22.4747 17.8147C23.1121 17.2161 23.4974 16.3971 23.5522 15.5245C23.6071 14.6518 23.3273 13.7911 22.77 13.1174C22.2126 12.4437 21.4195 12.0077 20.552 11.8982C20.483 11.8896 20.4168 11.8657 20.3582 11.8283C20.2995 11.791 20.2499 11.7411 20.213 11.6822C20.176 11.6233 20.1527 11.5569 20.1445 11.4879C20.1364 11.4188 20.1437 11.3488 20.166 11.283C20.5061 10.2773 20.4499 9.17978 20.009 8.21406C19.568 7.24834 18.7754 6.48711 17.7926 6.0855C16.8099 5.68388 15.711 5.6721 14.7199 6.05256C13.7288 6.43301 12.92 7.17707 12.4584 8.13312C12.4305 8.19082 12.3911 8.24219 12.3425 8.28404C12.294 8.32589 12.2374 8.35734 12.1762 8.37645C12.115 8.39556 12.0506 8.40191 11.9868 8.39512C11.9231 8.38833 11.8614 8.36854 11.8056 8.33698C11.3983 8.10692 10.944 7.9724 10.4771 7.94356C10.0102 7.91473 9.54287 7.99234 9.11034 8.17053C8.67782 8.34872 8.29142 8.62284 7.98032 8.9722C7.66922 9.32155 7.44154 9.73702 7.31448 10.1872C7.2809 10.3064 7.20156 10.4074 7.09379 10.4682C6.98601 10.5291 6.85854 10.5448 6.73918 10.5121C6.37667 10.4129 6.00249 10.3627 5.62665 10.363Z" fill="#0886ED"/>
</g>
<defs>
<clipPath id="clip0_1_9135">
<rect width="24" height="24" fill="white" transform="translate(0.498047 0.261719)"/>
</clipPath>
</defs>
</svg>
