<svg width="25" height="25" viewBox="0 0 25 25" fill="none" xmlns="http://www.w3.org/2000/svg">
<g id="cross (1) 1">
<path id="Vector" fill-rule="evenodd" clip-rule="evenodd" d="M3.09961 12.2617C3.09961 7.29116 7.12905 3.26172 12.0996 3.26172C17.0702 3.26172 21.0996 7.29116 21.0996 12.2617C21.0996 17.2323 17.0702 21.2617 12.0996 21.2617C7.12905 21.2617 3.09961 17.2323 3.09961 12.2617ZM12.0996 1.26172C6.02448 1.26172 1.09961 6.18659 1.09961 12.2617C1.09961 18.3368 6.02448 23.2617 12.0996 23.2617C18.1747 23.2617 23.0996 18.3368 23.0996 12.2617C23.0996 6.18659 18.1747 1.26172 12.0996 1.26172ZM7.3925 16.9688C7.00198 16.5783 7.00198 15.9451 7.3925 15.5546L10.6854 12.2617L7.3925 8.96883C7.00198 8.5783 7.00198 7.94514 7.3925 7.55461C7.78303 7.16409 8.41619 7.16409 8.80672 7.55461L12.0996 10.8475L15.3925 7.55461C15.783 7.16409 16.4162 7.16409 16.8067 7.55461C17.1972 7.94514 17.1972 8.5783 16.8067 8.96883L13.5138 12.2617L16.8067 15.5546C17.1972 15.9451 17.1972 16.5783 16.8067 16.9688C16.4162 17.3593 15.783 17.3593 15.3925 16.9688L12.0996 13.6759L8.80672 16.9688C8.41619 17.3593 7.78303 17.3593 7.3925 16.9688Z" fill="white"/>
</g>
</svg>
