<svg width="24" height="25" viewBox="0 0 24 25" fill="none" xmlns="http://www.w3.org/2000/svg">
<g id="folder 1">
<path id="XMLID_52_" d="M21.8719 9.87969C21.4828 9.35 20.8828 9.04531 20.2266 9.04531H19.7297V7.70937C19.7297 6.58437 18.8156 5.67031 17.686 5.67031H11.7235C11.3813 5.67031 11.0531 5.53437 10.8094 5.29531L9.87189 4.3625C9.48751 3.97812 8.97658 3.76719 8.43283 3.76719H3.77345C2.64845 3.76719 1.73439 4.68125 1.73439 5.81094V17.7031C1.72033 18.1578 1.85626 18.6078 2.13283 18.9828C2.52658 19.5172 3.13126 19.8266 3.79689 19.8266H18.136C19.0313 19.8266 19.8141 19.25 20.086 18.3922L22.1813 11.6937C22.3735 11.0703 22.261 10.4094 21.8719 9.87969ZM2.4797 5.81094C2.4797 5.09844 3.06095 4.51719 3.76876 4.51719H8.43283C8.77501 4.51719 9.09845 4.65312 9.34689 4.89219L10.2844 5.825C10.6688 6.20937 11.1797 6.42031 11.7235 6.42031H17.6906C18.4031 6.42031 18.9844 7.00156 18.9844 7.70937V9.04531H5.85939C4.96408 9.04531 4.18126 9.62187 3.90939 10.475L2.47501 15.05V5.81094H2.4797ZM21.4594 11.4734L19.3641 18.1719C19.1953 18.7156 18.6985 19.0766 18.1313 19.0766H3.7922C3.37033 19.0766 2.98595 18.8797 2.73283 18.5422C2.48439 18.2 2.40939 17.7734 2.53595 17.3703L4.62189 10.7C4.79064 10.1562 5.28751 9.79531 5.8547 9.79531H20.2219C20.6391 9.79531 21.0188 9.9875 21.2625 10.3203C21.5156 10.6578 21.586 11.075 21.4594 11.4734Z" fill="#505050"/>
</g>
</svg>
