<svg width="17" height="17" viewBox="0 0 17 17" fill="none" xmlns="http://www.w3.org/2000/svg">
<g id="headphone 1" clip-path="url(#clip0_1_9245)">
<g id="STATIONERY AND OFFICE">
<path id="Vector" d="M3.26539 12.4235C3.8532 13.9176 4.33539 14.8779 4.42164 15.0019C4.56383 15.206 4.85695 15.3301 5.09101 15.2801C5.28659 15.2348 5.47674 15.1687 5.6582 15.0829C5.8406 14.9991 6.01373 14.8964 6.17476 14.7766C6.36414 14.6307 6.46289 14.3348 6.40758 14.1029C6.37633 13.9601 5.97226 13.0138 5.40945 11.5826C4.84664 10.1513 4.50133 9.18194 4.42695 9.05632C4.30945 8.84882 4.03633 8.69913 3.7982 8.72069C3.59861 8.74253 3.40182 8.78505 3.21101 8.84757C3.01925 8.908 2.83454 8.98888 2.66008 9.08882C2.45445 9.21132 2.32414 9.50163 2.35851 9.74788C2.38039 9.89694 2.68008 10.9285 3.26539 12.4235Z" fill="#808080"/>
<path id="Vector_2" d="M14.712 9.74788C14.7463 9.50163 14.616 9.21132 14.4104 9.08882C14.2362 8.98895 14.0519 8.90807 13.8604 8.84757C13.6696 8.78505 13.4728 8.74253 13.2732 8.72069C13.0351 8.69913 12.762 8.84882 12.6445 9.05632C12.5701 9.18132 12.2229 10.1501 11.662 11.5826C11.101 13.0151 10.6948 13.9601 10.6638 14.1035C10.6088 14.3354 10.7073 14.6313 10.8967 14.7773C11.0577 14.8971 11.2308 14.9997 11.4132 15.0835C11.5947 15.1694 11.7848 15.2355 11.9804 15.2807C12.2145 15.3307 12.5076 15.2066 12.6498 15.0026C12.7348 14.8776 13.217 13.9182 13.806 12.4241C14.3951 10.9301 14.6913 9.89694 14.712 9.74788Z" fill="#808080"/>
<path id="Vector_3" d="M16.2227 9.61288V8.65819C16.3172 8.60734 16.3962 8.53181 16.4512 8.43964C16.5063 8.34747 16.5353 8.2421 16.5352 8.13475C16.5349 6.55268 16.0656 5.00619 15.1866 3.69082C14.3075 2.37545 13.0581 1.35026 11.5965 0.744855C10.1348 0.139454 8.52648 -0.0189707 6.97479 0.289611C5.4231 0.598193 3.99775 1.35992 2.87893 2.4785C2.13376 3.21957 1.54293 4.10104 1.14063 5.07192C0.738336 6.0428 0.532549 7.08382 0.535181 8.13475C0.535199 8.24199 0.564263 8.34723 0.619285 8.43928C0.674307 8.53133 0.753233 8.60676 0.847681 8.65756V9.61288C0.72242 9.70338 0.628173 9.83037 0.57783 9.97647C0.527487 10.1226 0.523506 10.2807 0.566431 10.4291C1.09249 12.2546 1.78813 14.0269 2.64424 15.7229C2.68853 15.811 2.74977 15.8895 2.82445 15.954C2.89913 16.0184 2.98579 16.0675 3.07946 16.0984C3.17313 16.1293 3.27198 16.1414 3.37034 16.134C3.4687 16.1267 3.56464 16.1 3.65267 16.0555C3.7407 16.011 3.81909 15.9496 3.88336 15.8748C3.94762 15.7999 3.99649 15.7132 4.02718 15.6194C4.05786 15.5257 4.06975 15.4268 4.06217 15.3285C4.05459 15.2301 4.02768 15.1342 3.98299 15.0463C3.16923 13.4345 2.50802 11.7501 2.00799 10.0151C1.96874 9.87934 1.89194 9.75747 1.78645 9.66348C1.68097 9.56949 1.55108 9.50721 1.41174 9.48381V8.65819C1.50599 8.60713 1.58466 8.53151 1.63941 8.43936C1.69415 8.3472 1.72293 8.24194 1.72268 8.13475C1.72255 6.78723 2.12205 5.46994 2.87064 4.34949C3.61924 3.22903 4.68331 2.35576 5.92826 1.8401C7.17322 1.32445 8.54313 1.18959 9.86474 1.45258C11.1864 1.71557 12.4003 2.36459 13.353 3.31756C13.9874 3.94881 14.4903 4.69957 14.8327 5.52642C15.1751 6.35328 15.3501 7.23982 15.3477 8.13475C15.3477 8.24199 15.3768 8.34723 15.4318 8.43928C15.4868 8.53133 15.5657 8.60676 15.6602 8.65756V9.48163C15.5208 9.50503 15.391 9.56731 15.2855 9.66129C15.18 9.75528 15.1032 9.87716 15.0639 10.0129C14.5639 11.7479 13.9027 13.4323 13.0889 15.0441C12.9992 15.2217 12.9837 15.4276 13.0458 15.6166C13.108 15.8056 13.2426 15.9622 13.4202 16.0519C13.5978 16.1417 13.8037 16.1572 13.9927 16.095C14.1817 16.0329 14.3383 15.8983 14.428 15.7207C15.2839 14.0247 15.9794 12.2524 16.5055 10.4269C16.5478 10.2786 16.5433 10.1209 16.4927 9.97523C16.4421 9.82956 16.3478 9.70303 16.2227 9.61288Z" fill="#808080"/>
</g>
</g>
<defs>
<clipPath id="clip0_1_9245">
<rect width="16" height="16" fill="white" transform="translate(0.535156 0.134766)"/>
</clipPath>
</defs>
</svg>
