<svg width="17" height="17" viewBox="0 0 17 17" fill="none" xmlns="http://www.w3.org/2000/svg">
<g id="headphone 1" clip-path="url(#clip0_1_9238)">
<g id="STATIONERY AND OFFICE">
<path id="Vector" d="M2.85523 13.0231C3.44305 14.5172 3.92523 15.4775 4.01148 15.6016C4.15367 15.8056 4.4468 15.9297 4.68086 15.8797C4.87644 15.8344 5.06659 15.7683 5.24805 15.6825C5.43044 15.5987 5.60357 15.4961 5.76461 15.3762C5.95398 15.2303 6.05273 14.9344 5.99742 14.7025C5.96617 14.5597 5.56211 13.6134 4.9993 12.1822C4.43648 10.7509 4.09117 9.78155 4.0168 9.65593C3.8993 9.44843 3.62617 9.29874 3.38805 9.3203C3.18845 9.34214 2.99166 9.38466 2.80086 9.44718C2.6091 9.50761 2.42439 9.58849 2.24992 9.68843C2.0443 9.81093 1.91398 10.1012 1.94836 10.3475C1.97023 10.4966 2.26992 11.5281 2.85523 13.0231Z" fill="#FAFAFA"/>
<path id="Vector_2" d="M14.3018 10.3475C14.3362 10.1012 14.2059 9.81093 14.0003 9.68843C13.8261 9.58856 13.6417 9.50767 13.4503 9.44718C13.2594 9.38466 13.0627 9.34214 12.8631 9.3203C12.6249 9.29874 12.3518 9.44843 12.2343 9.65593C12.1599 9.78093 11.8128 10.7497 11.2518 12.1822C10.6909 13.6147 10.2846 14.5597 10.2537 14.7031C10.1987 14.935 10.2971 15.2309 10.4865 15.3769C10.6475 15.4967 10.8207 15.5993 11.0031 15.6831C11.1845 15.769 11.3747 15.8351 11.5703 15.8803C11.8043 15.9303 12.0974 15.8062 12.2396 15.6022C12.3246 15.4772 12.8068 14.5178 13.3959 13.0237C13.9849 11.5297 14.2812 10.4966 14.3018 10.3475Z" fill="#FAFAFA"/>
<path id="Vector_3" d="M15.8125 10.2125V9.25783C15.9071 9.20698 15.9861 9.13145 16.0411 9.03928C16.0961 8.94711 16.1251 8.84174 16.125 8.73439C16.1248 7.15232 15.6555 5.60583 14.7764 4.29046C13.8973 2.97509 12.648 1.9499 11.1863 1.3445C9.72467 0.739094 8.11632 0.580669 6.56463 0.889251C5.01295 1.19783 3.58759 1.95956 2.46878 3.07814C1.7236 3.81921 1.13278 4.70068 0.730479 5.67156C0.328179 6.64244 0.122393 7.68346 0.125025 8.73439C0.125043 8.84163 0.154106 8.94687 0.209129 9.03892C0.264151 9.13097 0.343077 9.2064 0.437525 9.2572V10.2125C0.312263 10.303 0.218017 10.43 0.167674 10.5761C0.117331 10.7222 0.11335 10.8803 0.156275 11.0288C0.682337 12.8543 1.37797 14.6266 2.23409 16.3225C2.27838 16.4106 2.33961 16.4892 2.41429 16.5536C2.48897 16.618 2.57563 16.6671 2.6693 16.698C2.76297 16.7289 2.86182 16.741 2.96018 16.7337C3.05854 16.7263 3.15448 16.6996 3.24251 16.6551C3.33055 16.6106 3.40894 16.5492 3.4732 16.4744C3.53746 16.3996 3.58634 16.3128 3.61702 16.2191C3.6477 16.1253 3.65959 16.0265 3.65201 15.9281C3.64443 15.8298 3.61753 15.7339 3.57284 15.646C2.75907 14.0341 2.09786 12.3497 1.59784 10.6147C1.55858 10.479 1.48179 10.3571 1.3763 10.2631C1.27081 10.1691 1.14092 10.1069 1.00159 10.0835V9.25783C1.09584 9.20677 1.17451 9.13115 1.22925 9.039C1.284 8.94684 1.31277 8.84158 1.31252 8.73439C1.31239 7.38687 1.71189 6.06958 2.46049 4.94913C3.20908 3.82867 4.27315 2.9554 5.51811 2.43974C6.76306 1.92409 8.13298 1.78923 9.45459 2.05222C10.7762 2.31521 11.9901 2.96423 12.9428 3.9172C13.5772 4.54845 14.0802 5.29921 14.4225 6.12606C14.7649 6.95292 14.94 7.83946 14.9375 8.73439C14.9375 8.84163 14.9666 8.94687 15.0216 9.03892C15.0767 9.13097 15.1556 9.2064 15.25 9.2572V10.0813C15.1107 10.1047 14.9808 10.1669 14.8753 10.2609C14.7698 10.3549 14.693 10.4768 14.6538 10.6125C14.1538 12.3475 13.4925 14.0319 12.6788 15.6438C12.5891 15.8213 12.5736 16.0273 12.6357 16.2163C12.6978 16.4053 12.8325 16.5619 13.01 16.6516C13.1876 16.7413 13.3935 16.7568 13.5825 16.6947C13.7715 16.6326 13.9281 16.4979 14.0178 16.3203C14.8737 14.6243 15.5692 12.852 16.0953 11.0266C16.1376 10.8783 16.1331 10.7205 16.0825 10.5749C16.0319 10.4292 15.9376 10.3027 15.8125 10.2125Z" fill="#FAFAFA"/>
</g>
</g>
<defs>
<clipPath id="clip0_1_9238">
<rect width="16" height="16" fill="white" transform="translate(0.125 0.734375)"/>
</clipPath>
</defs>
</svg>
