<svg width="24" height="25" viewBox="0 0 24 25" fill="none" xmlns="http://www.w3.org/2000/svg">
<g id="Icons">
<g id="Shape">
<path fill-rule="evenodd" clip-rule="evenodd" d="M6.00098 7.63477C6.00098 6.5302 5.89613 5.63477 7.0007 5.63477H9.0007C10.1053 5.63477 10.001 6.5302 10.001 7.63477V17.6348C10.001 18.7393 10.1053 19.6348 9.0007 19.6348H7.0007C5.89613 19.6348 6.0007 18.7393 6.0007 17.6348L6.00098 7.63477Z" fill="#191D23"/>
<path fill-rule="evenodd" clip-rule="evenodd" d="M14.0007 8.13477C14.0007 7.0302 13.8961 5.63477 15.0007 5.63477H17.0007C18.1053 5.63477 18.0007 6.5302 18.0007 7.63477V17.6348C18.0007 18.7393 18.1053 19.6348 17.0007 19.6348H15.0007C13.8961 19.6348 14.0007 18.7393 14.0007 17.6348V8.13477Z" fill="#191D23"/>
</g>
</g>
</svg>
