<svg width="81" height="81" viewBox="0 0 81 81" fill="none" xmlns="http://www.w3.org/2000/svg">
<g id="question (1) 1" clip-path="url(#clip0_1_8699)">
<g id="Group">
<path id="Vector" d="M75.5354 35.0494C75.5354 15.6278 59.7223 -0.100447 40.2689 0.0375219C20.9926 0.174084 5.3459 16.0797 5.51106 35.3558C5.647 51.2233 16.3389 64.5705 30.9064 68.7227C32.224 69.0983 33.3501 69.9592 34.0345 71.1461L38.4806 78.8569C39.3876 80.4299 41.6576 80.4299 42.5647 78.8569L47.0107 71.146C47.6948 69.9595 48.8201 69.0985 50.1372 68.7231C64.799 64.5449 75.5354 51.0519 75.5354 35.0494Z" fill="#D82E3D"/>
<path id="Vector_2" d="M40.2694 0.0375199C39.0978 0.0458011 37.94 0.113457 36.798 0.235489C54.3822 2.09674 68.0834 16.9717 68.0834 35.0495C68.0834 51.0521 57.347 64.5449 42.6852 68.7231C41.3681 69.0985 40.2428 69.9595 39.5588 71.146L36.7969 75.936L38.4811 78.8569C39.3881 80.4299 41.6583 80.4299 42.5652 78.8569L47.0112 71.146C47.6953 69.9595 48.8206 69.0985 50.1377 68.7231C64.7995 64.5449 75.5359 51.0521 75.5359 35.0495C75.5359 15.6278 59.7228 -0.100293 40.2694 0.0375199Z" fill="#B93333"/>
<path id="Vector_3" d="M41.5345 54.5948H39.5101C38.196 54.5948 37.1309 53.5295 37.1309 52.2154V50.5848C37.1309 49.2707 38.1962 48.2056 39.5101 48.2056H41.5345C42.8485 48.2056 43.9137 49.2709 43.9137 50.5848V52.2154C43.9137 53.5296 42.8485 54.5948 41.5345 54.5948Z" fill="#F1F1F4"/>
<path id="Vector_4" d="M41.5345 48.2056H39.5102C39.4328 48.2056 39.3567 48.2099 39.2812 48.2171C40.4878 48.3323 41.4317 49.3481 41.4317 50.5849V52.2156C41.4317 53.4523 40.4878 54.4681 39.2812 54.5832C39.3566 54.5904 39.4328 54.5948 39.5102 54.5948H41.5345C42.8486 54.5948 43.9137 53.5295 43.9137 52.2154V50.5848C43.9137 49.2709 42.8486 48.2056 41.5345 48.2056Z" fill="#E2DFE2"/>
<g id="Group_2">
<path id="Vector_5" d="M40.5216 43.8388C38.8005 43.8388 37.4052 42.4435 37.4052 40.7224V33.8924C37.4052 32.1713 38.8005 30.776 40.5216 30.776C43.3195 30.776 45.5956 28.4997 45.5956 25.7021C45.5956 22.9041 43.3194 20.628 40.5216 20.628C37.7237 20.628 35.4477 22.9042 35.4477 25.7021C35.4477 27.4231 34.0523 28.8185 32.3312 28.8185C30.6102 28.8185 29.2148 27.4231 29.2148 25.7021C29.2148 19.4674 34.287 14.395 40.5217 14.395C46.7564 14.395 51.8287 19.4674 51.8287 25.7021C51.8287 30.7767 48.4686 35.0813 43.8559 36.5074C43.7266 36.5474 43.6383 36.6671 43.6383 36.8024V40.7225C43.6381 42.4435 42.2428 43.8388 40.5216 43.8388Z" fill="#F1F1F4"/>
</g>
<g id="Group_3">
<path id="Vector_6" d="M40.5228 20.6277C40.9583 20.6277 41.3811 20.6831 41.7847 20.7866C40.8567 19.7774 39.5264 19.1437 38.0505 19.1437C35.2527 19.1437 32.9766 21.4199 32.9766 24.2177C32.9766 25.9388 31.5812 27.3341 29.8602 27.3341C29.798 27.3341 29.7372 27.3284 29.6758 27.3248C30.2234 28.2193 31.2069 28.8181 32.3325 28.8181C34.0536 28.8181 35.4489 27.4227 35.4489 25.7016C35.4489 22.904 37.7252 20.6277 40.5228 20.6277Z" fill="#E2DFE2"/>
<path id="Vector_7" d="M45.0391 15.3384C47.6667 17.4107 49.3584 20.6193 49.3584 24.2178C49.3584 28.911 46.4844 32.9456 42.4036 34.6535C41.6528 34.9678 41.168 35.7063 41.168 36.5203V39.2381C41.168 40.9592 39.7727 42.3545 38.0516 42.3545C37.9894 42.3545 37.9286 42.3487 37.8672 42.3453C38.4095 43.2309 39.3789 43.8268 40.4908 43.8384C42.2231 43.8565 43.6403 42.3782 43.6403 40.6459V36.8021C43.6403 36.6667 43.7286 36.5471 43.858 36.5071C48.4706 35.0812 51.8308 30.7765 51.8308 25.7018C51.8308 21.072 49.0323 17.0851 45.0391 15.3384Z" fill="#E2DFE2"/>
</g>
</g>
</g>
<defs>
<clipPath id="clip0_1_8699">
<rect width="80" height="80" fill="white" transform="translate(0.523438 0.0366211)"/>
</clipPath>
</defs>
</svg>
