<svg width="24" height="25" viewBox="0 0 24 25" fill="none" xmlns="http://www.w3.org/2000/svg">
<g id="reminder 2">
<path id="Vector" d="M18.8345 19.4082C18.8345 20.5874 17.875 21.5469 16.6954 21.5469H6.58435C5.40479 21.5469 4.44531 20.5874 4.44531 19.4082V6.40771C4.44531 5.22852 5.40479 4.26904 6.58435 4.26904H13.4742C13.6814 4.26904 13.8689 4.18513 14.0046 4.04941C14.1403 3.91373 14.2242 3.72627 14.2242 3.51904C14.2242 3.10449 13.8884 2.76904 13.4742 2.76904H6.58435C4.57788 2.76904 2.94531 4.40161 2.94531 6.40771V19.4082C2.94531 21.4143 4.57788 23.0469 6.58435 23.0469H16.6954C18.7019 23.0469 20.3345 21.4143 20.3345 19.4082V9.62891C20.3345 9.21436 19.9987 8.87891 19.5845 8.87891C19.3772 8.87891 19.1897 8.96295 19.054 9.09877C18.9184 9.23445 18.8345 9.42177 18.8345 9.62891V19.4082Z" fill="#064C85"/>
<path id="Vector_2" d="M15.973 15.7686H10.1953C9.78113 15.7686 9.44531 16.104 9.44531 16.5186C9.44531 16.9331 9.78113 17.2686 10.1953 17.2686H15.973C16.3872 17.2686 16.723 16.9331 16.723 16.5186C16.723 16.104 16.3872 15.7686 15.973 15.7686Z" fill="#064C85"/>
<path id="Vector_3" d="M15.973 12.1582H10.1953C9.78113 12.1582 9.44531 12.4937 9.44531 12.9082C9.44531 13.3228 9.78113 13.6582 10.1953 13.6582H15.973C16.3872 13.6582 16.723 13.3228 16.723 12.9082C16.723 12.4937 16.3872 12.1582 15.973 12.1582Z" fill="#064C85"/>
<path id="Vector_4" d="M7.32007 12.1582H7.31238C6.89819 12.1582 6.56641 12.4937 6.56641 12.9082C6.56641 13.3228 6.90588 13.6582 7.32007 13.6582C7.73425 13.6582 8.07007 13.3228 8.07007 12.9082C8.07007 12.4937 7.73425 12.1582 7.32007 12.1582Z" fill="#064C85"/>
<path id="Vector_5" d="M7.32007 15.7686H7.31238C6.89819 15.7686 6.56641 16.104 6.56641 16.5186C6.56641 16.9331 6.90588 17.2686 7.32007 17.2686C7.73425 17.2686 8.07007 16.9331 8.07007 16.5186C8.07007 16.104 7.73425 15.7686 7.32007 15.7686Z" fill="#064C85"/>
<path id="Vector_6" d="M15.973 8.54688H10.1953C9.78113 8.54688 9.44531 8.88232 9.44531 9.29688C9.44531 9.71143 9.78113 10.0469 10.1953 10.0469H15.973C16.3872 10.0469 16.723 9.71143 16.723 9.29688C16.723 8.88232 16.3872 8.54688 15.973 8.54688Z" fill="#064C85"/>
<path id="Vector_7" d="M7.32007 8.54688H7.31238C6.89819 8.54688 6.56641 8.88232 6.56641 9.29688C6.56641 9.71143 6.90588 10.0469 7.32007 10.0469C7.73425 10.0469 8.07007 9.71143 8.07007 9.29688C8.07007 8.88232 7.73425 8.54688 7.32007 8.54688Z" fill="#064C85"/>
<path id="Vector_8" d="M18.1392 2.04688C17.725 2.04688 17.3892 2.38232 17.3892 2.79688V4.21338H15.9727C15.5585 4.21338 15.2227 4.54883 15.2227 4.96338C15.2248 5.37361 15.5625 5.71117 15.9727 5.71338H17.3892V7.12988C17.3914 7.54012 17.729 7.87767 18.1392 7.87988C18.5533 7.87988 18.8892 7.54443 18.8892 7.12988V5.71338H20.306C20.7202 5.71338 21.056 5.37793 21.056 4.96338C21.056 4.54883 20.7202 4.21338 20.306 4.21338H18.8892V2.79688C18.8892 2.38232 18.5533 2.04688 18.1392 2.04688Z" fill="#064C85"/>
</g>
</svg>
