<svg width="24" height="25" viewBox="0 0 24 25" fill="none" xmlns="http://www.w3.org/2000/svg">
<g id="material-symbols:more-vert">
<path id="Vector" d="M12 20.6348C11.45 20.6348 10.9793 20.4391 10.588 20.0478C10.196 19.6558 10 19.1848 10 18.6348C10 18.0848 10.196 17.6138 10.588 17.2218C10.9793 16.8304 11.45 16.6348 12 16.6348C12.55 16.6348 13.021 16.8304 13.413 17.2218C13.8043 17.6138 14 18.0848 14 18.6348C14 19.1848 13.8043 19.6558 13.413 20.0478C13.021 20.4391 12.55 20.6348 12 20.6348ZM12 14.6348C11.45 14.6348 10.9793 14.4388 10.588 14.0468C10.196 13.6554 10 13.1848 10 12.6348C10 12.0848 10.196 11.6138 10.588 11.2218C10.9793 10.8304 11.45 10.6348 12 10.6348C12.55 10.6348 13.021 10.8304 13.413 11.2218C13.8043 11.6138 14 12.0848 14 12.6348C14 13.1848 13.8043 13.6554 13.413 14.0468C13.021 14.4388 12.55 14.6348 12 14.6348ZM12 8.63477C11.45 8.63477 10.9793 8.43877 10.588 8.04677C10.196 7.65543 10 7.18477 10 6.63477C10 6.08477 10.196 5.6141 10.588 5.22277C10.9793 4.83077 11.45 4.63477 12 4.63477C12.55 4.63477 13.021 4.83077 13.413 5.22277C13.8043 5.6141 14 6.08477 14 6.63477C14 7.18477 13.8043 7.65543 13.413 8.04677C13.021 8.43877 12.55 8.63477 12 8.63477Z" fill="#505050"/>
</g>
</svg>
